<mxfile host="app.diagrams.net" modified="2020-12-15T12:13:28.982Z" agent="5.0 (Windows NT 10.0; Win64; x64) AppleWebKit/537.36 (KHTML, like Gecko) Chrome/87.0.4280.88 Safari/537.36" etag="dNWVN4-aRSvzPDnMTdlA" version="13.6.5" type="github" pages="3">
  <diagram id="fVtckg6xYKPGh0C4gRNM" name="第 1 页">
    <mxGraphModel dx="1422" dy="762" grid="1" gridSize="10" guides="1" tooltips="1" connect="1" arrows="1" fold="1" page="1" pageScale="1" pageWidth="827" pageHeight="1169" math="0" shadow="0">
      <root>
        <mxCell id="0" />
        <mxCell id="1" parent="0" />
        <mxCell id="qTxqzM0TXSJ5WkKehvTQ-1" value="用户客户服务业务边界" style="shape=umlFrame;whiteSpace=wrap;html=1;" vertex="1" parent="1">
          <mxGeometry x="250" y="160" width="390" height="400" as="geometry" />
        </mxCell>
        <mxCell id="qTxqzM0TXSJ5WkKehvTQ-2" value="用户客户" style="shape=umlActor;verticalLabelPosition=bottom;verticalAlign=top;html=1;" vertex="1" parent="1">
          <mxGeometry x="60" y="200" width="30" height="60" as="geometry" />
        </mxCell>
        <mxCell id="qTxqzM0TXSJ5WkKehvTQ-3" value="低压用户客户" style="shape=umlActor;verticalLabelPosition=bottom;verticalAlign=top;html=1;" vertex="1" parent="1">
          <mxGeometry x="30" y="370" width="30" height="60" as="geometry" />
        </mxCell>
        <mxCell id="qTxqzM0TXSJ5WkKehvTQ-4" value="高压用户客户" style="shape=umlActor;verticalLabelPosition=bottom;verticalAlign=top;html=1;" vertex="1" parent="1">
          <mxGeometry x="110" y="370" width="30" height="60" as="geometry" />
        </mxCell>
        <mxCell id="qTxqzM0TXSJ5WkKehvTQ-5" value="银行" style="shape=umlActor;verticalLabelPosition=bottom;verticalAlign=top;html=1;" vertex="1" parent="1">
          <mxGeometry x="710" y="210" width="30" height="60" as="geometry" />
        </mxCell>
        <mxCell id="qTxqzM0TXSJ5WkKehvTQ-8" value="" style="endArrow=block;endSize=16;endFill=0;html=1;exitX=0.5;exitY=0;exitDx=0;exitDy=0;exitPerimeter=0;" edge="1" parent="1" source="qTxqzM0TXSJ5WkKehvTQ-3">
          <mxGeometry width="160" relative="1" as="geometry">
            <mxPoint x="20" y="330" as="sourcePoint" />
            <mxPoint x="70" y="280" as="targetPoint" />
          </mxGeometry>
        </mxCell>
        <mxCell id="qTxqzM0TXSJ5WkKehvTQ-9" value="" style="endArrow=block;endSize=16;endFill=0;html=1;exitX=0.5;exitY=0;exitDx=0;exitDy=0;exitPerimeter=0;" edge="1" parent="1" source="qTxqzM0TXSJ5WkKehvTQ-4">
          <mxGeometry width="160" relative="1" as="geometry">
            <mxPoint x="120" y="360" as="sourcePoint" />
            <mxPoint x="90" y="280" as="targetPoint" />
          </mxGeometry>
        </mxCell>
        <mxCell id="qTxqzM0TXSJ5WkKehvTQ-10" value="业务服务部门" style="shape=umlActor;verticalLabelPosition=bottom;verticalAlign=top;html=1;" vertex="1" parent="1">
          <mxGeometry x="350" y="200" width="30" height="60" as="geometry" />
        </mxCell>
        <mxCell id="qTxqzM0TXSJ5WkKehvTQ-11" value="财务管理部门" style="shape=umlActor;verticalLabelPosition=bottom;verticalAlign=top;html=1;" vertex="1" parent="1">
          <mxGeometry x="440" y="200" width="30" height="60" as="geometry" />
        </mxCell>
        <mxCell id="qTxqzM0TXSJ5WkKehvTQ-12" value="电表抄表部门" style="shape=umlActor;verticalLabelPosition=bottom;verticalAlign=top;html=1;" vertex="1" parent="1">
          <mxGeometry x="530" y="200" width="30" height="60" as="geometry" />
        </mxCell>
        <mxCell id="qTxqzM0TXSJ5WkKehvTQ-13" value="电费管理部门" style="shape=umlActor;verticalLabelPosition=bottom;verticalAlign=top;html=1;" vertex="1" parent="1">
          <mxGeometry x="350" y="310" width="30" height="60" as="geometry" />
        </mxCell>
        <mxCell id="qTxqzM0TXSJ5WkKehvTQ-14" value="现场施工部门" style="shape=umlActor;verticalLabelPosition=bottom;verticalAlign=top;html=1;" vertex="1" parent="1">
          <mxGeometry x="440" y="310" width="30" height="60" as="geometry" />
        </mxCell>
        <mxCell id="qTxqzM0TXSJ5WkKehvTQ-15" value="用电检查部门" style="shape=umlActor;verticalLabelPosition=bottom;verticalAlign=top;html=1;" vertex="1" parent="1">
          <mxGeometry x="530" y="310" width="30" height="60" as="geometry" />
        </mxCell>
        <mxCell id="qTxqzM0TXSJ5WkKehvTQ-17" value="资产管理部门" style="shape=umlActor;verticalLabelPosition=bottom;verticalAlign=top;html=1;" vertex="1" parent="1">
          <mxGeometry x="440" y="440" width="30" height="60" as="geometry" />
        </mxCell>
      </root>
    </mxGraphModel>
  </diagram>
  <diagram id="UnFZRF0_xaxDoAZm_4K6" name="第 2 页">
    <mxGraphModel dx="2249" dy="762" grid="1" gridSize="10" guides="1" tooltips="1" connect="1" arrows="1" fold="1" page="1" pageScale="1" pageWidth="827" pageHeight="1169" math="0" shadow="0">
      <root>
        <mxCell id="VMHL4-OKeh0HZNOrpoPC-0" />
        <mxCell id="VMHL4-OKeh0HZNOrpoPC-1" parent="VMHL4-OKeh0HZNOrpoPC-0" />
        <mxCell id="WEKIqlF2JiJO3RbVy2A4-0" value="Pool" style="swimlane;html=1;childLayout=stackLayout;startSize=20;rounded=0;shadow=0;labelBackgroundColor=none;strokeWidth=1;fontFamily=Verdana;fontSize=8;align=center;" vertex="1" parent="VMHL4-OKeh0HZNOrpoPC-1">
          <mxGeometry x="-10" y="20" width="1390" height="770" as="geometry" />
        </mxCell>
        <mxCell id="WEKIqlF2JiJO3RbVy2A4-1" value="业务员" style="swimlane;html=1;startSize=20;" vertex="1" parent="WEKIqlF2JiJO3RbVy2A4-0">
          <mxGeometry y="20" width="160" height="750" as="geometry" />
        </mxCell>
        <mxCell id="WEKIqlF2JiJO3RbVy2A4-90" style="edgeStyle=orthogonalEdgeStyle;rounded=0;orthogonalLoop=1;jettySize=auto;html=1;entryX=0.5;entryY=0;entryDx=0;entryDy=0;" edge="1" parent="WEKIqlF2JiJO3RbVy2A4-1" source="WEKIqlF2JiJO3RbVy2A4-88" target="WEKIqlF2JiJO3RbVy2A4-89">
          <mxGeometry relative="1" as="geometry" />
        </mxCell>
        <mxCell id="WEKIqlF2JiJO3RbVy2A4-88" value="业务存档" style="rounded=1;whiteSpace=wrap;html=1;" vertex="1" parent="WEKIqlF2JiJO3RbVy2A4-1">
          <mxGeometry x="20" y="610" width="120" height="50" as="geometry" />
        </mxCell>
        <mxCell id="WEKIqlF2JiJO3RbVy2A4-49" value="" style="ellipse;html=1;shape=startState;fillColor=#000000;strokeColor=#ff0000;" vertex="1" parent="WEKIqlF2JiJO3RbVy2A4-1">
          <mxGeometry x="65" y="50" width="30" height="30" as="geometry" />
        </mxCell>
        <mxCell id="WEKIqlF2JiJO3RbVy2A4-50" value="" style="edgeStyle=orthogonalEdgeStyle;html=1;verticalAlign=bottom;endArrow=open;endSize=8;strokeColor=#ff0000;entryX=0.5;entryY=0;entryDx=0;entryDy=0;" edge="1" source="WEKIqlF2JiJO3RbVy2A4-49" parent="WEKIqlF2JiJO3RbVy2A4-1" target="WEKIqlF2JiJO3RbVy2A4-51">
          <mxGeometry relative="1" as="geometry">
            <mxPoint x="80" y="120" as="targetPoint" />
          </mxGeometry>
        </mxCell>
        <mxCell id="WEKIqlF2JiJO3RbVy2A4-51" value="申请登记" style="rounded=1;whiteSpace=wrap;html=1;" vertex="1" parent="WEKIqlF2JiJO3RbVy2A4-1">
          <mxGeometry x="20" y="130" width="120" height="50" as="geometry" />
        </mxCell>
        <mxCell id="WEKIqlF2JiJO3RbVy2A4-56" value="业务存档" style="rounded=1;whiteSpace=wrap;html=1;" vertex="1" parent="WEKIqlF2JiJO3RbVy2A4-1">
          <mxGeometry x="20" y="380" width="120" height="50" as="geometry" />
        </mxCell>
        <mxCell id="WEKIqlF2JiJO3RbVy2A4-89" value="" style="ellipse;html=1;shape=endState;fillColor=#000000;strokeColor=#ff0000;" vertex="1" parent="WEKIqlF2JiJO3RbVy2A4-1">
          <mxGeometry x="65" y="700" width="30" height="30" as="geometry" />
        </mxCell>
        <mxCell id="WEKIqlF2JiJO3RbVy2A4-91" value="正常结束" style="text;html=1;strokeColor=none;fillColor=none;align=center;verticalAlign=middle;whiteSpace=wrap;rounded=0;" vertex="1" parent="WEKIqlF2JiJO3RbVy2A4-1">
          <mxGeometry x="100" y="680" width="50" height="20" as="geometry" />
        </mxCell>
        <mxCell id="WEKIqlF2JiJO3RbVy2A4-20" value="业务班长" style="swimlane;html=1;startSize=20;" vertex="1" parent="WEKIqlF2JiJO3RbVy2A4-0">
          <mxGeometry x="160" y="20" width="160" height="750" as="geometry" />
        </mxCell>
        <mxCell id="WEKIqlF2JiJO3RbVy2A4-52" value="分配勘察" style="rounded=1;whiteSpace=wrap;html=1;" vertex="1" parent="WEKIqlF2JiJO3RbVy2A4-20">
          <mxGeometry x="20" y="130" width="120" height="50" as="geometry" />
        </mxCell>
        <mxCell id="WEKIqlF2JiJO3RbVy2A4-58" value="用电审批" style="rounded=1;whiteSpace=wrap;html=1;" vertex="1" parent="WEKIqlF2JiJO3RbVy2A4-20">
          <mxGeometry x="20" y="380" width="120" height="50" as="geometry" />
        </mxCell>
        <mxCell id="WEKIqlF2JiJO3RbVy2A4-71" value="不符合用电条件" style="text;html=1;strokeColor=none;fillColor=none;align=center;verticalAlign=middle;whiteSpace=wrap;rounded=0;" vertex="1" parent="WEKIqlF2JiJO3RbVy2A4-20">
          <mxGeometry x="10" y="230" width="90" height="20" as="geometry" />
        </mxCell>
        <mxCell id="WEKIqlF2JiJO3RbVy2A4-22" value="勘察员" style="swimlane;html=1;startSize=20;" vertex="1" parent="WEKIqlF2JiJO3RbVy2A4-0">
          <mxGeometry x="320" y="20" width="200" height="750" as="geometry" />
        </mxCell>
        <mxCell id="WEKIqlF2JiJO3RbVy2A4-97" style="edgeStyle=orthogonalEdgeStyle;rounded=0;orthogonalLoop=1;jettySize=auto;html=1;" edge="1" parent="WEKIqlF2JiJO3RbVy2A4-22" source="WEKIqlF2JiJO3RbVy2A4-53" target="WEKIqlF2JiJO3RbVy2A4-54">
          <mxGeometry relative="1" as="geometry" />
        </mxCell>
        <mxCell id="WEKIqlF2JiJO3RbVy2A4-69" value="符合用电条件" style="text;html=1;strokeColor=none;fillColor=none;align=center;verticalAlign=middle;whiteSpace=wrap;rounded=0;" vertex="1" parent="WEKIqlF2JiJO3RbVy2A4-22">
          <mxGeometry x="55" y="280" width="90" height="20" as="geometry" />
        </mxCell>
        <mxCell id="WEKIqlF2JiJO3RbVy2A4-53" value="现场勘察" style="rounded=1;whiteSpace=wrap;html=1;" vertex="1" parent="WEKIqlF2JiJO3RbVy2A4-22">
          <mxGeometry x="40" y="130" width="120" height="50" as="geometry" />
        </mxCell>
        <mxCell id="WEKIqlF2JiJO3RbVy2A4-72" value="符合用电条件？" style="text;html=1;strokeColor=none;fillColor=none;align=center;verticalAlign=middle;whiteSpace=wrap;rounded=0;" vertex="1" parent="WEKIqlF2JiJO3RbVy2A4-22">
          <mxGeometry x="60" y="191" width="90" height="20" as="geometry" />
        </mxCell>
        <mxCell id="WEKIqlF2JiJO3RbVy2A4-54" value="" style="strokeWidth=2;html=1;shape=mxgraph.flowchart.decision;whiteSpace=wrap;" vertex="1" parent="WEKIqlF2JiJO3RbVy2A4-22">
          <mxGeometry x="55" y="230" width="90" height="40" as="geometry" />
        </mxCell>
        <mxCell id="WEKIqlF2JiJO3RbVy2A4-64" value="" style="line;strokeWidth=4;fillColor=none;align=left;verticalAlign=middle;spacingTop=-1;spacingLeft=3;spacingRight=3;rotatable=0;labelPosition=right;points=[];portConstraint=eastwest;" vertex="1" parent="WEKIqlF2JiJO3RbVy2A4-22">
          <mxGeometry x="25" y="321" width="145" height="8" as="geometry" />
        </mxCell>
        <mxCell id="WEKIqlF2JiJO3RbVy2A4-73" value="" style="strokeWidth=2;html=1;shape=mxgraph.flowchart.decision;whiteSpace=wrap;" vertex="1" parent="WEKIqlF2JiJO3RbVy2A4-22">
          <mxGeometry x="55" y="460" width="90" height="40" as="geometry" />
        </mxCell>
        <mxCell id="WEKIqlF2JiJO3RbVy2A4-27" value="配电专员" style="swimlane;html=1;startSize=20;aspect=fixed;" vertex="1" parent="WEKIqlF2JiJO3RbVy2A4-0">
          <mxGeometry x="520" y="20" width="200" height="750" as="geometry" />
        </mxCell>
        <mxCell id="WEKIqlF2JiJO3RbVy2A4-59" value="配电审批" style="rounded=1;whiteSpace=wrap;html=1;" vertex="1" parent="WEKIqlF2JiJO3RbVy2A4-27">
          <mxGeometry x="20" y="380" width="120" height="50" as="geometry" />
        </mxCell>
        <mxCell id="WEKIqlF2JiJO3RbVy2A4-79" value="双方均同意送电" style="text;html=1;strokeColor=none;fillColor=none;align=center;verticalAlign=middle;whiteSpace=wrap;rounded=0;" vertex="1" parent="WEKIqlF2JiJO3RbVy2A4-27">
          <mxGeometry x="70" y="500" width="100" height="20" as="geometry" />
        </mxCell>
        <mxCell id="WEKIqlF2JiJO3RbVy2A4-36" value="业务收费员" style="swimlane;html=1;startSize=20;" vertex="1" parent="WEKIqlF2JiJO3RbVy2A4-0">
          <mxGeometry x="720" y="20" width="160" height="750" as="geometry" />
        </mxCell>
        <mxCell id="WEKIqlF2JiJO3RbVy2A4-77" value="业务收费" style="rounded=1;whiteSpace=wrap;html=1;" vertex="1" parent="WEKIqlF2JiJO3RbVy2A4-36">
          <mxGeometry x="20" y="530" width="120" height="50" as="geometry" />
        </mxCell>
        <mxCell id="WEKIqlF2JiJO3RbVy2A4-43" value="技术专职" style="swimlane;html=1;startSize=20;" vertex="1" parent="WEKIqlF2JiJO3RbVy2A4-0">
          <mxGeometry x="880" y="20" width="160" height="750" as="geometry" />
        </mxCell>
        <mxCell id="WEKIqlF2JiJO3RbVy2A4-94" style="edgeStyle=orthogonalEdgeStyle;rounded=0;orthogonalLoop=1;jettySize=auto;html=1;entryX=0.5;entryY=0;entryDx=0;entryDy=0;" edge="1" parent="WEKIqlF2JiJO3RbVy2A4-43" source="WEKIqlF2JiJO3RbVy2A4-83" target="WEKIqlF2JiJO3RbVy2A4-85">
          <mxGeometry relative="1" as="geometry" />
        </mxCell>
        <mxCell id="WEKIqlF2JiJO3RbVy2A4-83" value="委托设计" style="rounded=1;whiteSpace=wrap;html=1;" vertex="1" parent="WEKIqlF2JiJO3RbVy2A4-43">
          <mxGeometry x="30" y="380" width="120" height="50" as="geometry" />
        </mxCell>
        <mxCell id="WEKIqlF2JiJO3RbVy2A4-85" value="设计审查" style="rounded=1;whiteSpace=wrap;html=1;" vertex="1" parent="WEKIqlF2JiJO3RbVy2A4-43">
          <mxGeometry x="30" y="530" width="120" height="50" as="geometry" />
        </mxCell>
        <mxCell id="WEKIqlF2JiJO3RbVy2A4-45" value="施工班" style="swimlane;html=1;startSize=20;" vertex="1" parent="WEKIqlF2JiJO3RbVy2A4-0">
          <mxGeometry x="1040" y="20" width="160" height="750" as="geometry" />
        </mxCell>
        <mxCell id="WEKIqlF2JiJO3RbVy2A4-86" value="现场施工" style="rounded=1;whiteSpace=wrap;html=1;" vertex="1" parent="WEKIqlF2JiJO3RbVy2A4-45">
          <mxGeometry x="30" y="530" width="120" height="50" as="geometry" />
        </mxCell>
        <mxCell id="WEKIqlF2JiJO3RbVy2A4-48" value="装表员" style="swimlane;html=1;startSize=20;" vertex="1" parent="WEKIqlF2JiJO3RbVy2A4-0">
          <mxGeometry x="1200" y="20" width="160" height="750" as="geometry" />
        </mxCell>
        <mxCell id="WEKIqlF2JiJO3RbVy2A4-87" value="安装电表" style="rounded=1;whiteSpace=wrap;html=1;" vertex="1" parent="WEKIqlF2JiJO3RbVy2A4-48">
          <mxGeometry x="20" y="530" width="120" height="50" as="geometry" />
        </mxCell>
        <mxCell id="WEKIqlF2JiJO3RbVy2A4-57" style="edgeStyle=orthogonalEdgeStyle;rounded=0;orthogonalLoop=1;jettySize=auto;html=1;entryX=0.5;entryY=0;entryDx=0;entryDy=0;" edge="1" parent="WEKIqlF2JiJO3RbVy2A4-0" source="WEKIqlF2JiJO3RbVy2A4-54" target="WEKIqlF2JiJO3RbVy2A4-56">
          <mxGeometry relative="1" as="geometry" />
        </mxCell>
        <mxCell id="WEKIqlF2JiJO3RbVy2A4-66" value="" style="endArrow=classic;html=1;entryX=1;entryY=0;entryDx=0;entryDy=0;" edge="1" parent="WEKIqlF2JiJO3RbVy2A4-0" target="WEKIqlF2JiJO3RbVy2A4-58">
          <mxGeometry width="50" height="50" relative="1" as="geometry">
            <mxPoint x="410" y="350" as="sourcePoint" />
            <mxPoint x="390" y="340" as="targetPoint" />
          </mxGeometry>
        </mxCell>
        <mxCell id="WEKIqlF2JiJO3RbVy2A4-67" value="" style="endArrow=classic;html=1;entryX=0;entryY=0;entryDx=0;entryDy=0;" edge="1" parent="WEKIqlF2JiJO3RbVy2A4-0" source="WEKIqlF2JiJO3RbVy2A4-64" target="WEKIqlF2JiJO3RbVy2A4-59">
          <mxGeometry width="50" height="50" relative="1" as="geometry">
            <mxPoint x="410" y="348" as="sourcePoint" />
            <mxPoint x="244" y="409" as="targetPoint" />
          </mxGeometry>
        </mxCell>
        <mxCell id="WEKIqlF2JiJO3RbVy2A4-74" value="" style="endArrow=classic;html=1;entryX=0;entryY=0.5;entryDx=0;entryDy=0;entryPerimeter=0;exitX=1;exitY=0.5;exitDx=0;exitDy=0;" edge="1" parent="WEKIqlF2JiJO3RbVy2A4-0" source="WEKIqlF2JiJO3RbVy2A4-58" target="WEKIqlF2JiJO3RbVy2A4-73">
          <mxGeometry width="50" height="50" relative="1" as="geometry">
            <mxPoint x="394.99" y="355" as="sourcePoint" />
            <mxPoint x="244" y="409" as="targetPoint" />
          </mxGeometry>
        </mxCell>
        <mxCell id="WEKIqlF2JiJO3RbVy2A4-75" value="" style="endArrow=classic;html=1;entryX=1;entryY=0.5;entryDx=0;entryDy=0;entryPerimeter=0;exitX=0;exitY=1;exitDx=0;exitDy=0;" edge="1" parent="WEKIqlF2JiJO3RbVy2A4-0" source="WEKIqlF2JiJO3RbVy2A4-59" target="WEKIqlF2JiJO3RbVy2A4-73">
          <mxGeometry width="50" height="50" relative="1" as="geometry">
            <mxPoint x="310" y="435" as="sourcePoint" />
            <mxPoint x="365" y="470" as="targetPoint" />
          </mxGeometry>
        </mxCell>
        <mxCell id="WEKIqlF2JiJO3RbVy2A4-78" value="" style="endArrow=classic;html=1;entryX=0;entryY=0.5;entryDx=0;entryDy=0;exitX=1;exitY=0.5;exitDx=0;exitDy=0;exitPerimeter=0;" edge="1" parent="WEKIqlF2JiJO3RbVy2A4-0" source="WEKIqlF2JiJO3RbVy2A4-73" target="WEKIqlF2JiJO3RbVy2A4-77">
          <mxGeometry width="50" height="50" relative="1" as="geometry">
            <mxPoint x="550" y="460" as="sourcePoint" />
            <mxPoint x="455" y="510" as="targetPoint" />
          </mxGeometry>
        </mxCell>
        <mxCell id="WEKIqlF2JiJO3RbVy2A4-81" style="edgeStyle=orthogonalEdgeStyle;rounded=0;orthogonalLoop=1;jettySize=auto;html=1;exitX=1;exitY=0.5;exitDx=0;exitDy=0;" edge="1" parent="WEKIqlF2JiJO3RbVy2A4-0" source="WEKIqlF2JiJO3RbVy2A4-51" target="WEKIqlF2JiJO3RbVy2A4-52">
          <mxGeometry relative="1" as="geometry" />
        </mxCell>
        <mxCell id="WEKIqlF2JiJO3RbVy2A4-82" style="edgeStyle=orthogonalEdgeStyle;rounded=0;orthogonalLoop=1;jettySize=auto;html=1;exitX=1;exitY=0.5;exitDx=0;exitDy=0;" edge="1" parent="WEKIqlF2JiJO3RbVy2A4-0" source="WEKIqlF2JiJO3RbVy2A4-52" target="WEKIqlF2JiJO3RbVy2A4-53">
          <mxGeometry relative="1" as="geometry" />
        </mxCell>
        <mxCell id="WEKIqlF2JiJO3RbVy2A4-92" style="edgeStyle=orthogonalEdgeStyle;rounded=0;orthogonalLoop=1;jettySize=auto;html=1;entryX=1;entryY=0.5;entryDx=0;entryDy=0;" edge="1" parent="WEKIqlF2JiJO3RbVy2A4-0" source="WEKIqlF2JiJO3RbVy2A4-87" target="WEKIqlF2JiJO3RbVy2A4-88">
          <mxGeometry relative="1" as="geometry">
            <Array as="points">
              <mxPoint x="1310" y="655" />
            </Array>
          </mxGeometry>
        </mxCell>
        <mxCell id="WEKIqlF2JiJO3RbVy2A4-93" style="edgeStyle=orthogonalEdgeStyle;rounded=0;orthogonalLoop=1;jettySize=auto;html=1;entryX=0;entryY=0.5;entryDx=0;entryDy=0;" edge="1" parent="WEKIqlF2JiJO3RbVy2A4-0" source="WEKIqlF2JiJO3RbVy2A4-77" target="WEKIqlF2JiJO3RbVy2A4-83">
          <mxGeometry relative="1" as="geometry">
            <Array as="points">
              <mxPoint x="830" y="425" />
            </Array>
          </mxGeometry>
        </mxCell>
        <mxCell id="WEKIqlF2JiJO3RbVy2A4-95" style="edgeStyle=orthogonalEdgeStyle;rounded=0;orthogonalLoop=1;jettySize=auto;html=1;entryX=0;entryY=0.5;entryDx=0;entryDy=0;" edge="1" parent="WEKIqlF2JiJO3RbVy2A4-0" source="WEKIqlF2JiJO3RbVy2A4-85" target="WEKIqlF2JiJO3RbVy2A4-86">
          <mxGeometry relative="1" as="geometry" />
        </mxCell>
        <mxCell id="WEKIqlF2JiJO3RbVy2A4-96" style="edgeStyle=orthogonalEdgeStyle;rounded=0;orthogonalLoop=1;jettySize=auto;html=1;entryX=0;entryY=0.5;entryDx=0;entryDy=0;" edge="1" parent="WEKIqlF2JiJO3RbVy2A4-0" source="WEKIqlF2JiJO3RbVy2A4-86" target="WEKIqlF2JiJO3RbVy2A4-87">
          <mxGeometry relative="1" as="geometry" />
        </mxCell>
        <mxCell id="WEKIqlF2JiJO3RbVy2A4-100" style="edgeStyle=orthogonalEdgeStyle;rounded=0;orthogonalLoop=1;jettySize=auto;html=1;" edge="1" parent="VMHL4-OKeh0HZNOrpoPC-1" source="WEKIqlF2JiJO3RbVy2A4-54">
          <mxGeometry relative="1" as="geometry">
            <mxPoint x="410" y="360" as="targetPoint" />
          </mxGeometry>
        </mxCell>
      </root>
    </mxGraphModel>
  </diagram>
  <diagram id="blUqDNuNIfOZnVd0uc2L" name="第 3 页">
    <mxGraphModel dx="1422" dy="762" grid="1" gridSize="10" guides="1" tooltips="1" connect="1" arrows="1" fold="1" page="1" pageScale="1" pageWidth="827" pageHeight="1169" math="0" shadow="0">
      <root>
        <mxCell id="rPq2UgAgpKlDfZwf4oVi-0" />
        <mxCell id="rPq2UgAgpKlDfZwf4oVi-1" parent="rPq2UgAgpKlDfZwf4oVi-0" />
      </root>
    </mxGraphModel>
  </diagram>
</mxfile>
